<svg width="132" height="60" viewBox="0 0 132 60" fill="none" xmlns="http://www.w3.org/2000/svg">
<rect x="1" y="1" width="130" height="58" rx="5" fill="white"/>
<path d="M15.4354 12.443L15.4354 12.4429L15.4224 12.444C14.4012 12.5335 13.5824 12.9356 13.041 13.637C12.5207 14.311 12.3543 15.1356 12.3543 15.8993V37.8283C12.3543 39.1092 12.8292 40.1581 13.7333 41.3769L13.7332 41.377L13.7411 41.3872L18.4007 47.5021L18.4006 47.5021L18.4065 47.5097C18.8628 48.0967 19.369 48.5408 20.0499 48.7922C20.6968 49.031 21.4018 49.0565 22.1667 49.0196L22.1667 49.0197L22.1794 49.0189L45.1985 47.6129L45.1985 47.613L45.2092 47.6122C46.3119 47.533 47.2456 47.2199 47.8737 46.4986C48.4915 45.7892 48.6414 44.8785 48.6414 44.0144V19.3436C48.6414 18.742 48.5033 18.23 48.0973 17.7545C47.822 17.432 47.4174 17.1344 47.0091 16.8341C46.9542 16.7937 46.8993 16.7533 46.8446 16.7128L46.8367 16.707L46.8287 16.7013L40.5076 12.2076C39.7174 11.6274 39.0446 11.2116 38.1893 11.0155C37.3679 10.8272 36.4603 10.8622 35.2513 10.967L15.4354 12.443Z" fill="white" stroke="white" stroke-width="2"/>
<path fill-rule="evenodd" clip-rule="evenodd" d="M35.3316 11.9638L15.5097 13.4402C13.9113 13.5802 13.3543 14.6349 13.3543 15.8993V37.8283C13.3543 38.8135 13.7015 39.6556 14.5365 40.7811L19.1961 46.896C19.9614 47.8806 20.657 48.0913 22.1185 48.0208L45.1375 46.6148C47.0845 46.4749 47.6414 45.5605 47.6414 44.0144V19.3436C47.6414 18.5444 47.3287 18.3135 46.407 17.6329C46.3563 17.5954 46.3037 17.5566 46.2493 17.5163L39.9219 13.0182C38.392 11.894 37.7657 11.7526 35.3316 11.9638ZM22.6404 18.939C20.761 19.0673 20.334 19.0965 19.2667 18.2195L16.5527 16.0407C16.2759 15.759 16.4147 15.4075 17.1097 15.3378L36.1663 13.932C37.7654 13.7911 38.5998 14.3543 39.2261 14.846L42.4946 17.236C42.6337 17.306 42.9809 17.7272 42.5635 17.7272L22.883 18.9225L22.6404 18.939ZM20.4483 43.8031V22.8585C20.4483 21.945 20.7265 21.523 21.5606 21.4521L44.1629 20.1171C44.9295 20.0468 45.2767 20.5392 45.2767 21.4521V42.2561C45.2767 43.1705 45.1373 43.9447 43.8849 44.0144L22.2562 45.2802C21.0045 45.3498 20.4483 44.9288 20.4483 43.8031ZM41.8002 23.9821C41.9389 24.6153 41.8002 25.2479 41.1731 25.3191L40.1309 25.5291V40.9917C39.2261 41.4836 38.3917 41.7648 37.6965 41.7648C36.5833 41.7648 36.3045 41.4131 35.4707 40.3594L28.6541 29.5355V40.0079L30.8111 40.5003C30.8111 40.5003 30.8111 41.7648 29.0708 41.7648L24.2733 42.0463C24.1339 41.7648 24.2733 41.0625 24.7599 40.9218L26.0118 40.5708V26.7244L24.2735 26.5835C24.1342 25.9503 24.4813 25.0373 25.4557 24.9665L30.6024 24.6156L37.6965 35.5804V25.8805L35.8878 25.6706C35.7489 24.8965 36.3045 24.3344 37.0001 24.2647L41.8002 23.9821Z" fill="black"/>
<path d="M59.0387 14.5455H60.7699L63.7798 21.8949H63.8906L66.9006 14.5455H68.6317V24H67.2745V17.1584H67.1868L64.3984 23.9862H63.272L60.4837 17.1538H60.396V24H59.0387V14.5455ZM72.6585 24.157C72.2091 24.157 71.8029 24.0739 71.4397 23.9077C71.0766 23.7384 70.7888 23.4937 70.5764 23.1737C70.3672 22.8536 70.2625 22.4612 70.2625 21.9964C70.2625 21.5964 70.3395 21.267 70.4933 21.0085C70.6472 20.75 70.855 20.5453 71.1166 20.3945C71.3782 20.2437 71.6705 20.1299 71.9937 20.0529C72.3169 19.976 72.6462 19.9175 72.9816 19.8775C73.4063 19.8282 73.751 19.7882 74.0157 19.7575C74.2804 19.7236 74.4727 19.6697 74.5928 19.5959C74.7128 19.522 74.7728 19.402 74.7728 19.2358V19.2035C74.7728 18.8003 74.6589 18.4879 74.4312 18.2663C74.2065 18.0447 73.8711 17.9339 73.4248 17.9339C72.9601 17.9339 72.5938 18.037 72.3261 18.2433C72.0614 18.4464 71.8783 18.6726 71.7767 18.9219L70.4795 18.6264C70.6334 18.1955 70.858 17.8478 71.1535 17.5831C71.452 17.3153 71.7952 17.1214 72.183 17.0014C72.5708 16.8783 72.9785 16.8168 73.4063 16.8168C73.6895 16.8168 73.9896 16.8506 74.3066 16.9183C74.6266 16.983 74.9252 17.103 75.2021 17.2784C75.4822 17.4538 75.7115 17.7047 75.89 18.0309C76.0685 18.354 76.1578 18.7741 76.1578 19.2912V24H74.8097V23.0305H74.7544C74.6651 23.209 74.5312 23.3845 74.3527 23.5568C74.1742 23.7292 73.9449 23.8723 73.6649 23.9862C73.3848 24.1 73.0493 24.157 72.6585 24.157ZM72.9585 23.049C73.3402 23.049 73.6664 22.9736 73.9372 22.8228C74.2111 22.672 74.4189 22.475 74.5605 22.2319C74.7051 21.9857 74.7774 21.7225 74.7774 21.4425V20.5284C74.7282 20.5777 74.6328 20.6238 74.4912 20.6669C74.3527 20.7069 74.1942 20.7423 74.0157 20.7731C73.8372 20.8008 73.6633 20.8269 73.4941 20.8516C73.3248 20.8731 73.1832 20.8916 73.0693 20.907C72.8016 20.9408 72.5569 20.9978 72.3353 21.0778C72.1168 21.1578 71.9414 21.2732 71.809 21.424C71.6798 21.5717 71.6151 21.7687 71.6151 22.0149C71.6151 22.3565 71.7413 22.6151 71.9937 22.7905C72.2461 22.9628 72.5677 23.049 72.9585 23.049ZM80.6507 24.1385C80.0783 24.1385 79.5674 23.9923 79.1181 23.6999C78.6718 23.4045 78.321 22.9844 78.0655 22.4396C77.8132 21.8918 77.687 21.2347 77.687 20.4684C77.687 19.7021 77.8147 19.0465 78.0701 18.5018C78.3287 17.957 78.6826 17.54 79.1319 17.2507C79.5813 16.9614 80.0906 16.8168 80.66 16.8168C81.1001 16.8168 81.454 16.8906 81.7218 17.0384C81.9926 17.183 82.2019 17.3523 82.3496 17.5462C82.5004 17.7401 82.6174 17.9109 82.7005 18.0586H82.7836V14.5455H84.1639V24H82.8159V22.8967H82.7005C82.6174 23.0475 82.4973 23.2198 82.3404 23.4137C82.1865 23.6076 81.9741 23.7769 81.7033 23.9215C81.4325 24.0662 81.0816 24.1385 80.6507 24.1385ZM80.9554 22.9613C81.3525 22.9613 81.6879 22.8567 81.9618 22.6474C82.2388 22.435 82.4481 22.1411 82.5897 21.7656C82.7343 21.3902 82.8066 20.9531 82.8066 20.4545C82.8066 19.9621 82.7359 19.5312 82.5943 19.1619C82.4527 18.7926 82.245 18.5049 81.9711 18.2987C81.6971 18.0924 81.3586 17.9893 80.9554 17.9893C80.54 17.9893 80.1937 18.0971 79.9167 18.3125C79.6397 18.5279 79.4305 18.8219 79.2889 19.1942C79.1504 19.5666 79.0811 19.9867 79.0811 20.4545C79.0811 20.9285 79.1519 21.3548 79.2935 21.7333C79.4351 22.1119 79.6444 22.4119 79.9213 22.6335C80.2014 22.852 80.5461 22.9613 80.9554 22.9613ZM89.1901 24.1431C88.4914 24.1431 87.8898 23.9938 87.385 23.6953C86.8834 23.3937 86.4956 22.9705 86.2217 22.4258C85.9508 21.878 85.8154 21.2363 85.8154 20.5007C85.8154 19.7744 85.9508 19.1342 86.2217 18.5803C86.4956 18.0263 86.8772 17.5939 87.3666 17.283C87.859 16.9722 88.4345 16.8168 89.0931 16.8168C89.4932 16.8168 89.881 16.8829 90.2565 17.0153C90.632 17.1476 90.969 17.3554 91.2675 17.6385C91.566 17.9216 91.8015 18.2894 91.9738 18.7418C92.1462 19.1912 92.2323 19.7375 92.2323 20.3807V20.87H86.5956V19.8359H90.8797C90.8797 19.4728 90.8058 19.1512 90.6581 18.8711C90.5104 18.5879 90.3026 18.3648 90.0349 18.2017C89.7702 18.0386 89.4594 17.957 89.1024 17.957C88.7146 17.957 88.376 18.0524 88.0867 18.2433C87.8005 18.431 87.5789 18.6772 87.422 18.9819C87.2681 19.2835 87.1911 19.6113 87.1911 19.9652V20.7731C87.1911 21.247 87.2742 21.6502 87.4404 21.9826C87.6097 22.315 87.8451 22.5689 88.1468 22.7443C88.4484 22.9167 88.8008 23.0028 89.2039 23.0028C89.4655 23.0028 89.704 22.9659 89.9195 22.892C90.1349 22.8151 90.3211 22.7012 90.4781 22.5504C90.635 22.3996 90.7551 22.2134 90.8382 21.9918L92.1446 22.2273C92.04 22.612 91.8522 22.949 91.5814 23.2383C91.3137 23.5245 90.9767 23.7476 90.5704 23.9077C90.1672 24.0646 89.7071 24.1431 89.1901 24.1431ZM100.579 16.9091V18.017H96.5718V16.9091H100.579ZM97.6705 24V16.0874C97.6705 15.6442 97.7675 15.2764 97.9614 14.984C98.1553 14.6886 98.4123 14.4685 98.7323 14.3239C99.0524 14.1761 99.4002 14.1023 99.7757 14.1023C100.053 14.1023 100.29 14.1254 100.487 14.1715C100.684 14.2146 100.83 14.2546 100.925 14.2915L100.602 15.4087C100.537 15.3903 100.454 15.3687 100.353 15.3441C100.251 15.3164 100.128 15.3026 99.9834 15.3026C99.6479 15.3026 99.4079 15.3857 99.2632 15.5518C99.1217 15.718 99.0509 15.9581 99.0509 16.272V24H97.6705ZM104.711 24.1431C104.046 24.1431 103.466 23.9908 102.97 23.6861C102.475 23.3814 102.09 22.9551 101.816 22.4073C101.542 21.8595 101.405 21.2193 101.405 20.4869C101.405 19.7513 101.542 19.1081 101.816 18.5572C102.09 18.0063 102.475 17.5785 102.97 17.2738C103.466 16.9691 104.046 16.8168 104.711 16.8168C105.375 16.8168 105.956 16.9691 106.451 17.2738C106.947 17.5785 107.331 18.0063 107.605 18.5572C107.879 19.1081 108.016 19.7513 108.016 20.4869C108.016 21.2193 107.879 21.8595 107.605 22.4073C107.331 22.9551 106.947 23.3814 106.451 23.6861C105.956 23.9908 105.375 24.1431 104.711 24.1431ZM104.715 22.9844C105.146 22.9844 105.503 22.8705 105.786 22.6428C106.069 22.415 106.279 22.1119 106.414 21.7333C106.553 21.3548 106.622 20.9377 106.622 20.4822C106.622 20.0298 106.553 19.6143 106.414 19.2358C106.279 18.8542 106.069 18.5479 105.786 18.3171C105.503 18.0863 105.146 17.9709 104.715 17.9709C104.281 17.9709 103.921 18.0863 103.635 18.3171C103.352 18.5479 103.141 18.8542 103.003 19.2358C102.867 19.6143 102.799 20.0298 102.799 20.4822C102.799 20.9377 102.867 21.3548 103.003 21.7333C103.141 22.1119 103.352 22.415 103.635 22.6428C103.921 22.8705 104.281 22.9844 104.715 22.9844ZM109.557 24V16.9091H110.891V18.0355H110.965C111.094 17.6539 111.322 17.3538 111.648 17.1353C111.977 16.9137 112.35 16.8029 112.765 16.8029C112.851 16.8029 112.953 16.806 113.07 16.8121C113.19 16.8183 113.284 16.826 113.352 16.8352V18.1555C113.296 18.1402 113.198 18.1232 113.056 18.1048C112.915 18.0832 112.773 18.0724 112.631 18.0724C112.305 18.0724 112.014 18.1417 111.759 18.2802C111.507 18.4156 111.306 18.6049 111.159 18.848C111.011 19.0881 110.937 19.362 110.937 19.6697V24H109.557Z" fill="black"/>
<path d="M71.3878 30.4545V45H69.044L62.1903 35.0923H62.0696V45H59.4347V30.4545H61.7926L68.6392 40.3693H68.767V30.4545H71.3878ZM78.5038 45.2131C77.4384 45.2131 76.5151 44.9787 75.7339 44.5099C74.9526 44.0412 74.3466 43.3854 73.9157 42.5426C73.4896 41.6998 73.2765 40.715 73.2765 39.5881C73.2765 38.4612 73.4896 37.474 73.9157 36.6264C74.3466 35.7789 74.9526 35.1207 75.7339 34.652C76.5151 34.1832 77.4384 33.9489 78.5038 33.9489C79.5691 33.9489 80.4924 34.1832 81.2737 34.652C82.0549 35.1207 82.6586 35.7789 83.0847 36.6264C83.5156 37.474 83.731 38.4612 83.731 39.5881C83.731 40.715 83.5156 41.6998 83.0847 42.5426C82.6586 43.3854 82.0549 44.0412 81.2737 44.5099C80.4924 44.9787 79.5691 45.2131 78.5038 45.2131ZM78.518 43.1534C79.0956 43.1534 79.5786 42.9948 79.9668 42.6776C80.3551 42.3556 80.6439 41.9247 80.8333 41.3849C81.0274 40.8452 81.1245 40.2438 81.1245 39.581C81.1245 38.9134 81.0274 38.3097 80.8333 37.7699C80.6439 37.2254 80.3551 36.7921 79.9668 36.4702C79.5786 36.1482 79.0956 35.9872 78.518 35.9872C77.9261 35.9872 77.4337 36.1482 77.0407 36.4702C76.6524 36.7921 76.3612 37.2254 76.1671 37.7699C75.9777 38.3097 75.883 38.9134 75.883 39.581C75.883 40.2438 75.9777 40.8452 76.1671 41.3849C76.3612 41.9247 76.6524 42.3556 77.0407 42.6776C77.4337 42.9948 77.9261 43.1534 78.518 43.1534ZM90.9607 34.0909V36.0795H84.6893V34.0909H90.9607ZM86.2376 31.4773H88.8087V41.7188C88.8087 42.0644 88.8607 42.3295 88.9649 42.5142C89.0738 42.6941 89.2159 42.8172 89.3911 42.8835C89.5662 42.9498 89.7604 42.983 89.9734 42.983C90.1344 42.983 90.2812 42.9711 90.4138 42.9474C90.5511 42.9238 90.6553 42.9025 90.7263 42.8835L91.1595 44.8935C91.0222 44.9408 90.8257 44.9929 90.57 45.0497C90.3191 45.1065 90.0113 45.1397 89.6467 45.1491C89.0028 45.1681 88.4228 45.071 87.9067 44.858C87.3906 44.6402 86.981 44.304 86.678 43.8494C86.3797 43.3949 86.2329 42.8267 86.2376 42.1449V31.4773ZM92.7109 45V34.0909H95.2819V45H92.7109ZM94.0035 32.5426C93.5963 32.5426 93.2459 32.4077 92.9523 32.1378C92.6588 31.8632 92.512 31.5341 92.512 31.1506C92.512 30.7623 92.6588 30.4332 92.9523 30.1634C93.2459 29.8887 93.5963 29.7514 94.0035 29.7514C94.4154 29.7514 94.7658 29.8887 95.0546 30.1634C95.3482 30.4332 95.495 30.7623 95.495 31.1506C95.495 31.5341 95.3482 31.8632 95.0546 32.1378C94.7658 32.4077 94.4154 32.5426 94.0035 32.5426ZM102.284 45.2131C101.219 45.2131 100.296 44.9787 99.5143 44.5099C98.7331 44.0412 98.127 43.3854 97.6962 42.5426C97.27 41.6998 97.057 40.715 97.057 39.5881C97.057 38.4612 97.27 37.474 97.6962 36.6264C98.127 35.7789 98.7331 35.1207 99.5143 34.652C100.296 34.1832 101.219 33.9489 102.284 33.9489C103.35 33.9489 104.273 34.1832 105.054 34.652C105.835 35.1207 106.439 35.7789 106.865 36.6264C107.296 37.474 107.512 38.4612 107.512 39.5881C107.512 40.715 107.296 41.6998 106.865 42.5426C106.439 43.3854 105.835 44.0412 105.054 44.5099C104.273 44.9787 103.35 45.2131 102.284 45.2131ZM102.298 43.1534C102.876 43.1534 103.359 42.9948 103.747 42.6776C104.136 42.3556 104.424 41.9247 104.614 41.3849C104.808 40.8452 104.905 40.2438 104.905 39.581C104.905 38.9134 104.808 38.3097 104.614 37.7699C104.424 37.2254 104.136 36.7921 103.747 36.4702C103.359 36.1482 102.876 35.9872 102.298 35.9872C101.707 35.9872 101.214 36.1482 100.821 36.4702C100.433 36.7921 100.142 37.2254 99.9476 37.7699C99.7582 38.3097 99.6635 38.9134 99.6635 39.581C99.6635 40.2438 99.7582 40.8452 99.9476 41.3849C100.142 41.9247 100.433 42.3556 100.821 42.6776C101.214 42.9948 101.707 43.1534 102.298 43.1534ZM111.865 38.608V45H109.294V34.0909H111.751V35.9446H111.879C112.13 35.3338 112.53 34.8485 113.079 34.4886C113.633 34.1288 114.317 33.9489 115.132 33.9489C115.885 33.9489 116.54 34.1098 117.099 34.4318C117.663 34.7538 118.098 35.2202 118.406 35.831C118.718 36.4418 118.872 37.1828 118.868 38.054V45H116.297V38.4517C116.297 37.7225 116.107 37.152 115.728 36.7401C115.354 36.3281 114.836 36.1222 114.173 36.1222C113.723 36.1222 113.323 36.2216 112.973 36.4205C112.627 36.6146 112.355 36.8963 112.156 37.2656C111.962 37.6349 111.865 38.0824 111.865 38.608Z" fill="black"/>
<rect x="1" y="1" width="130" height="58" rx="5" stroke="black" stroke-width="2"/>
</svg>
