<?xml version="1.0" encoding="iso-8859-1"?>
<!-- Uploaded to: SVG Repo, www.svgrepo.com, Generator: SVG Repo Mixer Tools -->
<svg height="800px" width="800px" version="1.1" id="Layer_1" xmlns="http://www.w3.org/2000/svg" xmlns:xlink="http://www.w3.org/1999/xlink" 
	 viewBox="0 0 512 512" xml:space="preserve">
<polygon style="fill:#FEE187;" points="319.666,253.182 319.666,95.093 192.334,95.093 192.334,253.182 131.742,253.182 
	256,416.907 380.258,253.182 "/>
<g>
	<path style="fill:#FFC61B;" d="M256,431.967c-4.709,0-9.148-2.203-11.996-5.954L119.748,262.287
		c-3.458-4.555-4.036-10.678-1.492-15.8c2.543-5.123,7.769-8.364,13.488-8.364h45.533V95.092c0-8.315,6.742-15.059,15.059-15.059
		h127.331c8.317,0,15.059,6.743,15.059,15.059v143.03h45.533c5.719,0,10.945,3.239,13.488,8.364
		c2.543,5.122,1.965,11.244-1.492,15.8L267.997,426.011C265.148,429.764,260.709,431.967,256,431.967z M162.075,268.241L256,391.999
		l93.925-123.758h-30.259c-8.317,0-15.059-6.743-15.059-15.059V110.151h-97.214v143.03c0,8.315-6.742,15.059-15.059,15.059h-30.259
		V268.241z"/>
	<path style="fill:#FFC61B;" d="M256,512C114.842,512,0,397.158,0,256S114.842,0,256,0c8.317,0,15.059,6.743,15.059,15.059
		S264.317,30.118,256,30.118C131.448,30.118,30.118,131.448,30.118,256S131.448,481.882,256,481.882S481.882,380.552,481.882,256
		c0-68.911-30.874-133.183-84.706-176.34c-6.489-5.203-7.532-14.681-2.33-21.17c5.203-6.49,14.679-7.529,21.168-2.331
		C477.015,105.064,512,177.903,512,256C512,397.158,397.158,512,256,512z"/>
</g>
</svg>